<svg xmlns="http://www.w3.org/2000/svg" width="600" height="600"><path fill="#E32128" d="m320.313 77.813 3.596 1.22C366.947 93.939 406.784 116.119 442 145l1.61 1.313c12.199 10.001 23.613 20.853 34.827 31.937l1.992 1.952 1.817 1.814 1.615 1.602C485 185 485 185 485 187l3 1c1.84 2.012 1.84 2.012 3.938 4.688 3.015 3.788 6.073 7.494 9.271 11.128 7.324 8.344 13.867 17.206 20.356 26.208 1.374 2.004 1.374 2.004 3.093 3.615 2.192 3.857 1.768 7.839 1.74 12.197l.013 2.965c.006 3.192-.013 6.383-.036 9.574l-.013 3.295c-.082 17.61-.778 34.887-3.362 52.33l-.52 3.523C514.11 372.167 493.63 424.6 462 470l-1.179 1.693c-5.346 7.654-10.868 15.11-16.821 22.307l-2.035 2.977c-3.674 4.369-8.881 5.93-14.09 7.898l-3.334 1.29C404.256 513.843 383.424 519.592 362 523l-3.09.496c-54.506 8.234-112.101 1.93-165.257-11.579a611 611 0 0 0-8.119-1.979 699 699 0 0 1-12.173-3.015 281 281 0 0 0-4.786-1.162C157.432 503.139 151.37 500.055 145 490l-3.937-5.687A865 865 0 0 1 137 478l-1.16-1.8c-10.579-16.447-19.704-33.423-27.84-51.2l-1.22-2.628C90.145 386.324 80.39 346.42 76 307l-.308-2.51C74.8 297.009 74.334 289.527 74 282l-.126-2.716a757 757 0 0 1-.61-19.163q-.075-3.276-.209-6.55c-.463-11.867-.69-21.087 7.597-30.217A263 263 0 0 1 85 219a172 172 0 0 0 3.602-4.48q1.51-1.856 3.023-3.708l3.277-4.011 1.582-1.935a615 615 0 0 0 4.27-5.323l2.433-3.043 2.106-2.656L107 192h2l.63-1.613c1.924-3.353 4.58-5.883 7.304-8.586l1.795-1.802q1.887-1.888 3.78-3.77c1.897-1.886 3.784-3.782 5.669-5.68 6.97-6.977 14.068-13.445 21.822-19.549q2.537-2.118 5.063-4.25A293.5 293.5 0 0 1 192 121q1.92-1.159 3.84-2.32C213.583 108.004 231.82 98.8 251 91l3.4-1.408c9.132-3.752 18.378-6.929 27.787-9.904l4.174-1.338c13.37-4.274 20.52-5.144 33.952-.537"/><path fill="#FBFBFB" d="M304 91c17.663 3.533 34.837 11.195 51 19l2.113 1.01C383.552 123.713 408.54 139.087 431 158l2.586 2.063c11.872 9.47 22.665 20.106 33.414 30.812l2.39 2.376A250 250 0 0 1 483 208l1.662 1.944a774 774 0 0 1 5.026 5.994l1.623 1.916a179 179 0 0 1 3.503 4.362c1.195 1.522 2.402 3.035 3.666 4.5 10.325 12.016 12.228 21.194 11.457 36.784q-.08 2.949-.151 5.899c-.398 13.988-1.469 27.795-3.786 41.601l-1.137 7.277c-2.213 13.8-4.888 27.321-8.863 40.723l-.577 2.004c-11.891 41.216-32.031 79.808-57.892 113.938a111 111 0 0 0-3.107 4.407c-4.358 6.218-8.503 8.75-15.611 11.214l-3.026 1.106A398 398 0 0 1 406 495l-3.323 1.091C370.585 506.386 337.604 510.6 304 510q-.075-8.008-.11-16.016-.015-2.723-.04-5.447c-.025-2.611-.036-5.222-.045-7.834l-.032-2.456c0-3.958.133-6.85 2.227-10.247.285-2.074.489-4.16.625-6.25l.227-3.266L307 456c2.867 3.41 4.508 7.17 6.188 11.25l.826 1.969q.999 2.388 1.986 4.781h7l2-16c2.716 2.716 3.729 4.17 5.188 7.563l1.042 2.378C332 470 332 470 332 472l9-1v-26h-7v14c-6-8-6-8-6-12l-9 1v15c-2.051-2.051-2.641-3.27-3.625-5.937-.26-.69-.52-1.38-.79-2.09C314 453 314 453 314 450h-10q-.111-7.552-.165-15.106a803 803 0 0 0-.061-5.136c-.037-2.465-.054-4.93-.067-7.395-.015-.761-.03-1.523-.047-2.308-.001-4.537.507-7.459 3.34-11.055 2.889-1.444 4.796-1.377 8-1 3.168 2.652 5.627 5.629 8 9l-1-8h78l3 6-1.723-.176c-5.407-.316-8.619.282-12.84 3.75-3.414 3.387-4.765 6.72-5.437 11.426l-3-3-7 2 1.566 2.336 1.997 3.039c.66.998 1.322 1.995 2.003 3.023L380 440l-1 2-2.414-1.348-3.211-1.714-3.164-1.723c-3.657-1.384-5.497-1.317-9.211-.215l-2 2 1.785 2.992q1.14 1.94 2.277 3.883l1.182 1.973c.98 1.683 1.875 3.415 2.756 5.152l-1 2-2.309-3.098a2184 2184 0 0 0-3.128-3.964l-1.506-2.05-1.553-1.923-1.38-1.793c-3.044-1.946-3.044-1.946-11.124-.172v28l4-2h3v-5l9-3 1 3 2.52-.84L377 458l-1.059-2.082-1.378-2.73-1.372-2.708C372 448 372 448 371 445c2.44.944 4.838 1.922 7.195 3.059l2.368 1.128 2.253 1.106c3.258 1.055 5.213.193 8.184-1.293-.61-3.558-1.578-6.683-3-10l2.438 1.563c4.571 1.844 7.865 1.921 12.562.437 4.18-2.581 7.058-5.463 9-10 .584-2.457.584-2.457 0-5-2.396-2.813-2.396-2.813-5-5l1-2 1.61 1.785 2.14 2.277 2.11 2.286c1.972 1.87 1.972 1.87 4.28 1.648 2.368-1.268 2.907-2.533 3.86-4.996a2021 2021 0 0 0-4.812-4.875l-2.708-2.742c-2.436-2.481-2.436-2.481-5.48-4.383v-2l-6-2-1 1a92 92 0 0 1-5.062.063l-2.786-.028L392 407c1.346-4.253 2.97-8.252 4.813-12.312 2.355-5.359 4.28-10.763 5.937-16.375l.6-2.011c3.03-10.612 4.038-20.835 4.025-31.865l-.003-3.998c-.165-13.712-2.85-25.55-7.372-38.439v-3l-2.047 1.059-2.703 1.378-2.672 1.372c-7.31 3.378-15.773 3.553-23.32.851-3.146-1.463-6.219-2.989-9.258-4.66l-.371 2.383c-.786 4.522-1.735 9.003-2.692 13.492l-.564 2.664Q355.688 320.77 355 324l-9-1 1-5c4.75-1.125 4.75-1.125 7 0l.313-3.75c.531-5.008 1.786-9.715 3.164-14.55.79-4.073-.47-6.825-1.977-10.575-1.062-2.679-1.507-4.312-1.625-7.25-1.289-4.235-4.224-5.42-7.941-7.578L344 273v-2c1.687.613 3.348 1.297 5 2l3.625 1.375c2.667 1.52 3.296 2.403 4.348 5.344q.718 3.173 1.355 6.363c1.073 4.658 3.05 7.453 6.61 10.668 6.71 4.067 13.4 3.942 21.062 3.25 4.602-1.223 7.127-2.61 9.68-6.676 1.946-4.901 1.737-9.546 1.816-14.765.576-4.07 1.833-5.538 4.504-8.559v-3c-9.166-.6-18.312-1.101-27.5-1.125l-2.191-.014c-3.78-.045-3.78-.045-7.309 1.139-3.732.281-7.464.447-11.203.621-3.571.356-6.46 1.1-9.797 2.379v-3c5.685-2.353 10.764-3.618 16.875-4.187l2.388-.242c6.498-.623 12.996-1.242 19.46-.083 2.552.399 4.908.624 7.476.723l2.225.086q2.28.078 4.562.133c5.525.234 5.525.234 8.037 1.96.977 1.61.977 1.61.914 3.985-.937 2.625-.937 2.625-3 4.75-2.602 3.862-2.129 6.666-1.945 11.21.01 3.207-.781 5.714-1.992 8.665v2l1.344 1.23c10.59 11.315 10.21 34.325 10.656 48.77h4l-.973-1.766c-2.987-6.496-.66-12.853 1.473-19.234 3.252-9.513 3.252-9.513 1.625-19.14-.998-1.981-2.055-3.918-3.125-5.86-1-2.5-1-2.5-1-5a73 73 0 0 1 2-3.875c1.538-2.882 2-4.128 2.125-7.5-1.016-3.274-2.025-5.134-3.875-7.937-3.518-5.454-4.965-11.102-6.425-17.355-1.325-5.426-2.925-9.413-7.79-12.634l-1.973-1.012c-4.604-2.732-6.533-6.082-9.062-10.687-3.622-6.252-7.034-11.347-14-14a161 161 0 0 0-5.875-.625c-6.908-.877-9.435-4.483-13.703-9.668-4.172-4.663-8.952-7.468-15.262-7.902l-2.973-.055c-6.658-.272-10.511-3.286-15.496-7.328-4.945-3.431-4.945-3.431-16.691-7.422z"/><path fill="#039A4D" d="M323.438 195.688c5.252 3.932 9.192 4.997 15.722 5.117 6.31.434 11.09 3.239 15.262 7.902l2.453 2.98c4.502 5.302 7.504 6.361 14.297 6.954 6.176.784 10.265 4.343 14.015 9.109 1.999 2.83 3.544 5.706 5.063 8.813 2.017 3.83 4.2 5.698 7.813 8.062 7.905 5.177 9.113 10.65 11.217 19.535 1.177 4.638 2.948 8.263 5.533 12.34 3.173 5.07 3.173 5.07 3.312 9.375C417 289 417 289 415.375 292.125c-1.56 2.701-1.56 2.701-1.312 5.25.831 2.328 1.809 4.223 3 6.375 3.428 6.806 2.449 11.993.138 19.133l-1.404 4.23c-2.196 6.754-3.128 11.725-.297 18.45L417 348c-2.375.125-2.375.125-5 0-3.01-3.01-2.297-6.458-2.375-10.5-.499-13.487-2.59-28.702-9.625-40.5l-3-1 2-3c.984-3.606.982-6.727.75-10.437-.069-3.956.067-6.026 2.813-8.938L405 271c-.13-3.358-.13-3.358-2-6-2.733-.213-5.45-.377-8.187-.5-5.024-.231-9.852-.622-14.813-1.5-6.386-.501-12.771.17-19.125.813l-2.278.212c-5.278.58-9.69 1.944-14.597 3.975l2 1 1.648-.902c3.25-1.517 6.453-1.522 9.977-1.66 4.835-.048 4.835-.048 9.375-1.438 2.512-.102 4.989-.14 7.5-.125l2.252.006c8.432.063 16.836.568 25.248 1.119.75 1.688.75 1.688 1 4l-1.91 2.293c-2.706 3.505-2.523 5.641-2.527 10.02-.201 6.303-.906 11.14-5.563 15.687-6.224 4.237-13.711 3.75-21 3-6.668-1.838-10.636-5.98-14.094-11.86-1.064-2.513-1.317-4.674-1.531-7.39l-.227-2.703L356 277l-2.625-.75c-3.558-1.318-6.298-3.052-9.375-5.25 3.414 3.627 3.414 3.627 7.57 6.293 3.215 2.259 3.386 3.907 4.118 7.707.741 3.712 1.188 5.814 3.312 9-.137 1.988-.137 1.988-.687 4.313l-.598 2.636L357 304a2958 2958 0 0 0-1.625 7.625L354 318h-6l-2 5 9 1 .25-4.062c.693-7.19 2.767-14.02 4.75-20.938 2.964.627 5.276 1.637 7.938 3.063 6.696 3.006 13.961 3.163 20.976 1.066a95 95 0 0 0 4.965-2.156c2.035-.933 3.938-1.503 6.121-1.973 9.028 25.156 12.1 52.058 4 78l-.682 2.294c-2.91 9.729-6.393 18.8-11.318 27.706l2.047-.219 2.703-.281 2.672-.281c6.166-.523 6.166-.523 8.91 1.504l2.48 2.34 2.637 2.468c3.223 3.12 6.426 6.251 9.551 9.469-1.152 2.468-2.048 4.048-4 6-3.62-.292-5.324-1.996-7.75-4.562l-1.86-1.942L408 420c4.942 4.942 4.942 4.942 5.188 9.438-1.918 5.753-5.128 9.231-10.188 12.5-3.322 1.176-5.505 1.508-9 1.062-2.875-1.5-2.875-1.5-5-3l1.563 2.75C392 446 392 446 391.875 448.25 391 450 391 450 388 452c-4.227-.338-7.583-2.136-11.312-4.062l-3.239-1.66L371 445l1.313 2.082 1.687 2.73 1.688 2.708C377 455 377 455 377 458c-5.041 2.815-9.226 4.519-15 5l-1-2-8 2-1 5-7 2v-28l9-2 1.863 2.082 2.45 2.73 2.425 2.708A165 165 0 0 0 366 453l-8-14c3.36-3.36 4.376-3.814 9-4 3.21 1.215 3.21 1.215 6.375 2.938l3.21 1.714L379 441l-1.312-2.117-1.688-2.758-1.687-2.742C373 431 373 431 373 429c2.313-1.687 2.313-1.687 5-3 3 1 3 1 4 3l1.188-3.187c1.606-3.752 3.728-6.105 6.812-8.813l1.813-1.812c3.392-1.842 6.365-1.38 10.187-1.188-1.148-2.08-1.148-2.08-3-4-2.453-.572-2.453-.572-5.256-.438l-3.261.01-3.542.073-3.677.024c-3.9.029-7.8.085-11.702.144q-7.621.082-15.246.144l-3.723.036c-10.228.07-20.39-.304-30.593-.993l.992 1.766c1.403 3.11 1.137 5.867 1.008 9.234a107 107 0 0 1-5.062-7.187c-1.64-2.865-1.64-2.865-3.938-3.813-4.016-.45-4.016-.45-7.555 1.129-1.945 2.518-2.688 5.028-3.632 8.058l-1.043 3.293L302 424h-2l-.734-2.45c-2.4-7.939-2.4-7.939-7.266-14.55-5.721 2.33-9.32 7.229-13 12 .964-9.41.964-9.41 2-14-4.563 1.597-8.23 2.929-12 6-5.149 1.716-10.562.899-15.937.688l-3.616-.108-3.474-.13-3.18-.115c-2.733-.328-4.45-.935-6.793-2.335l3.402-.332c15.652-1.431 15.652-1.431 28.598-9.668l1-2q-4.563.465-9.125.938l-2.594.263c-4.458.463-8.868.996-13.281 1.799v-2c17.357-5.143 35.03-1.845 51 6l1-4a442 442 0 0 0-6.219-2.066 102 102 0 0 1-5.5-2.024c-12.758-4.717-26.983-3.828-40.281-1.91 5.887-5.416 15.16-4.413 22.727-4.285 10.344.467 19.76 4.48 29.273 8.285v-60l-9-3a537 537 0 0 1-10.693-4.482c-8.24-3.48-15.413-4.849-24.37-4.768l-2.603-.023c-5.163.015-9.446.602-14.334 2.273q-.507-3.78-1-7.562c-.095-.705-.19-1.41-.29-2.135-.574-4.456-1.016-8.804-.71-13.303a318 318 0 0 1 5-6c.88-3.727.88-3.727 1-7l-1.582.805c-10.093 4.843-20.29 5.9-31.418 5.195l-2-1c1.927 5.432 1.927 5.432 6.047 9.2 2.433.92 2.433.92 5.953 1.8v2h-4l-.113 3.945q-.099 2.59-.2 5.18l-.068 2.594c-.222 5.252-1.111 8.586-3.619 13.281-.358 2.97-.358 2.97-.187 5.875l.082 2.93L208 346c-1.875-.312-1.875-.312-4-1-2.12-3.18-2.254-4.057-2.309-7.71l-.076-2.774q-.052-2.88-.094-5.758c-.122-6.904-.122-6.904-3.521-12.758a81 81 0 0 0-4-2l-.044 2.184c-.075 3.293-.172 6.586-.268 9.878l-.069 3.436c-.427 13.31-.427 13.31-5.619 18.502-2.625.125-2.625.125-5 0l1.5-2.437c3.47-8.243.954-15.303-1.72-23.36-2.813-8.689-1.775-14.212 2.22-22.203.421-4.965.421-4.965-1.562-9.375-1.856-3.388-1.704-5.495-1.149-9.258.791-2.635 1.887-4.29 3.524-6.492 3.704-5.025 4.871-10.349 6.23-16.324 1.822-6.759 4.332-10.389 9.957-14.551l2.457-1.223c3.264-2.28 4.616-5.061 6.356-8.527 3.69-6.889 7.72-11.73 14.625-15.625 2.42-.59 4.583-.77 7.062-.937 4.762-.47 6.357-1.995 9.5-5.688 6.71-6.544 11.945-10.96 21.625-11.125 6.886-.38 11.094-3.591 16.367-7.648 14.03-10.386 30.172-7.494 43.445 2.46"/><path fill="#231E1F" d="M360 299c2.964.627 5.276 1.637 7.938 3.063 6.696 3.006 13.961 3.163 20.976 1.066a95 95 0 0 0 4.965-2.156c2.035-.933 3.938-1.503 6.121-1.973 9.028 25.156 12.1 52.058 4 78l-.682 2.294c-2.91 9.729-6.393 18.8-11.318 27.706l2.047-.219 2.703-.281 2.672-.281c6.166-.523 6.166-.523 8.91 1.504l2.48 2.34 2.637 2.468c3.223 3.12 6.426 6.251 9.551 9.469-1.152 2.468-2.048 4.048-4 6-3.62-.292-5.324-1.996-7.75-4.562l-1.86-1.942L408 420c4.942 4.942 4.942 4.942 5.188 9.438-1.918 5.753-5.128 9.231-10.188 12.5-3.322 1.176-5.505 1.508-9 1.062-2.875-1.5-2.875-1.5-5-3l1.563 2.75C392 446 392 446 391.875 448.25 391 450 391 450 388 452c-4.227-.338-7.583-2.136-11.312-4.062l-3.239-1.66L371 445l1.313 2.082 1.687 2.73 1.688 2.708C377 455 377 455 377 458c-5.041 2.815-9.226 4.519-15 5l-1-2-8 2-1 5-7 2v-28l9-2 1.863 2.082 2.45 2.73 2.425 2.708A165 165 0 0 0 366 453l-8-14c3.36-3.36 4.376-3.814 9-4 3.21 1.215 3.21 1.215 6.375 2.938l3.21 1.714L379 441l-1.312-2.117-1.688-2.758-1.687-2.742C373 431 373 431 373 429c2.313-1.687 2.313-1.687 5-3 3 1 3 1 4 3l1.188-3.187c1.606-3.752 3.728-6.105 6.812-8.813l1.813-1.812c3.392-1.842 6.365-1.38 10.187-1.188l-3-4 1-1-3.69-.168q-6.95-.315-13.9-.632l-3.035-.137-2.917-.133q-2.89-.132-5.78-.261-2.915-.134-5.828-.281c-4.995-.247-9.972-.412-14.974-.431l-3.001-.046a183 183 0 0 0-5.626.006c-5.032-.101-7.693-.79-11.373-4.346C327 399.39 327 399.39 327 397c-9.989.517-18.81 4.286-28 8v-5l10-5-3.312 1.5C302 398 302 398 299 398v-60c24.375-10.446 24.375-10.446 36-14v-8h4c1.75 1.75 1.75 1.75 3 4v4l3.688-.562c3.342-.428 6.032-.36 9.312.562l.078-1.66c.578-8.08 2.7-15.59 4.922-23.34"/><path fill="#211C1D" d="m320.313 77.813 3.596 1.22C366.947 93.939 406.784 116.119 442 145l1.61 1.313c12.199 10.001 23.613 20.853 34.827 31.937l1.992 1.952 1.817 1.814 1.615 1.602C485 185 485 185 485 187l3 1c1.84 2.012 1.84 2.012 3.938 4.688 3.015 3.788 6.073 7.494 9.271 11.128 7.324 8.344 13.867 17.206 20.356 26.208 1.374 2.004 1.374 2.004 3.093 3.615 2.192 3.857 1.768 7.839 1.74 12.197l.013 2.965c.006 3.192-.013 6.383-.036 9.574l-.013 3.295c-.082 17.61-.778 34.887-3.362 52.33l-.52 3.523C514.11 372.167 493.63 424.6 462 470l-1.179 1.693c-5.346 7.654-10.868 15.11-16.821 22.307l-2.035 2.977c-3.674 4.369-8.881 5.93-14.09 7.898l-3.334 1.29C404.256 513.843 383.424 519.592 362 523l-3.09.496c-54.506 8.234-112.101 1.93-165.257-11.579a611 611 0 0 0-8.119-1.979 699 699 0 0 1-12.173-3.015 281 281 0 0 0-4.786-1.162C157.432 503.139 151.37 500.055 145 490l-3.937-5.687A865 865 0 0 1 137 478l-1.16-1.8c-10.579-16.447-19.704-33.423-27.84-51.2l-1.22-2.628C90.145 386.324 80.39 346.42 76 307l-.308-2.51C74.8 297.009 74.334 289.527 74 282l-.126-2.716a757 757 0 0 1-.61-19.163q-.075-3.276-.209-6.55c-.463-11.867-.69-21.087 7.597-30.217A263 263 0 0 1 85 219a172 172 0 0 0 3.602-4.48q1.51-1.856 3.023-3.708l3.277-4.011 1.582-1.935a615 615 0 0 0 4.27-5.323l2.433-3.043 2.106-2.656L107 192h2l.63-1.613c1.924-3.353 4.58-5.883 7.304-8.586l1.795-1.802q1.887-1.888 3.78-3.77c1.897-1.886 3.784-3.782 5.669-5.68 6.97-6.977 14.068-13.445 21.822-19.549q2.537-2.118 5.063-4.25A293.5 293.5 0 0 1 192 121q1.92-1.159 3.84-2.32C213.583 108.004 231.82 98.8 251 91l3.4-1.408c9.132-3.752 18.378-6.929 27.787-9.904l4.174-1.338c13.37-4.274 20.52-5.144 33.952-.537m-29.329 5.496-2.21.732a714 714 0 0 0-7.024 2.397l-2.437.829C266.597 91.592 254.165 96.287 242 102l-3 1.39c-32.264 14.99-64.002 32.998-90 57.61a519 519 0 0 1-4 3.5l-1.973 1.727q-2.07 1.81-4.148 3.609c-11.436 10.066-22.585 20.776-31.992 32.781-1.795 2.267-3.678 4.383-5.637 6.508-5.666 6.283-10.65 13.133-15.73 19.89C84 231 84 231 81.845 233.266c-2.348 3.481-2.388 6.313-2.305 10.367v2.244c.007 2.417.045 4.832.086 7.248l.048 5.05c.52 43.441 6.95 86.785 20.426 128.126.778 2.392 1.54 4.788 2.303 7.185 2.953 9.173 6.396 17.827 10.598 26.514q1.155 2.613 2.281 5.238c8.42 19.378 19 37.58 31.102 54.895a58 58 0 0 1 4.297 7.172c3.567 6.549 7.69 8.553 14.579 10.73 5.212 1.48 10.462 2.75 15.741 3.965q2.393.582 4.785 1.172c2.664.653 5.332 1.266 8.01 1.865 3.923.885 7.814 1.878 11.709 2.885 8.087 2.048 16.223 3.673 24.434 5.14l2.14.387c23.955 4.307 47.893 6.78 72.235 6.739l2.216-.003c35.491-.098 71.472-4.138 104.993-16.309q2.59-.914 5.206-1.752c14.5-4.657 22.683-9.93 30.822-22.861 1.453-2.268 2.992-4.441 4.583-6.615a278 278 0 0 0 16.808-25.81 513 513 0 0 1 3.157-5.381c32.215-55.02 47.39-117.518 48.472-181.014q.055-2.51.164-5.016c.462-10.905.002-17.574-7.448-26.019L511 227a122 122 0 0 1-2.68-3.559C499.728 212.174 490.57 201.45 481 191l-1.427-1.563c-7.827-8.573-15.65-17.046-24.475-24.613a170 170 0 0 1-4.227-3.804c-7.221-6.709-14.997-12.6-22.87-18.511a547 547 0 0 1-5.165-3.954C391.3 114.317 354.828 96.76 317.375 83.812l-2.49-.883c-.78-.26-1.559-.518-2.362-.784l-2.002-.677c-6.91-1.283-12.966-.439-19.537 1.84"/><path fill="#F3F3F3" d="m318.938 84.313 3.146 1.08C351.222 95.62 379.201 109.02 405 126l2.225 1.46c9.068 5.998 17.737 12.426 26.19 19.26a800 800 0 0 0 4.48 3.585c5.946 4.78 11.603 9.81 17.19 15a547 547 0 0 0 8.103 7.32c6.723 6.045 13.067 12.366 18.949 19.234 2.152 2.473 4.383 4.864 6.613 7.266 5.28 5.792 10.105 11.883 14.88 18.093q2.05 2.663 4.112 5.317A939 939 0 0 1 515 232l1.296 1.55c3.435 4.32 4.428 7.784 4.298 13.321l.004 2.263c-.005 2.435-.05 4.868-.098 7.304l-.054 5.115C520.102 285.586 517.588 309.4 513 333l-.456 2.376C504.546 376.178 488.6 417.004 466 452l-1.388 2.169c-6.635 10.318-13.663 20.328-21.235 29.983-1.415 1.838-1.415 1.838-2.613 3.885-4.327 6.788-10.164 8.895-17.514 11.65l-3.67 1.429c-9.404 3.594-18.78 6.612-28.58 8.884l-2.54.615c-21.718 5.23-44.084 9.047-66.46 9.385l-3.664.062c-47.265.72-94.437-5.456-139.848-18.828a80 80 0 0 0-8.945-2.03c-9.028-1.715-13.963-4.602-19.293-12.204-2.174-3.281-4.215-6.632-6.25-10q-1.7-2.683-3.41-5.36a610 610 0 0 1-8.202-13.329 498 498 0 0 0-3.525-5.768C118.125 434.646 109.567 414.786 103 395l-.979-2.924A905 905 0 0 1 95 370l-.742-2.417c-8.912-29.574-12.643-61.46-14.14-92.202-.117-2.355-.245-4.709-.373-7.063a408 408 0 0 1-.425-11.715 176 176 0 0 0-.205-4.728c-.581-10.54.457-17.146 7.534-25.233a226 226 0 0 1 2.998-3.205c1.779-1.889 3.365-3.903 4.955-5.953 5.248-6.503 10.536-12.93 16.203-19.078a282 282 0 0 0 5.394-6.12c4.055-4.645 8.37-9.002 12.739-13.349l2.302-2.314c4.757-4.749 9.66-9.246 14.76-13.623q1.608-1.424 3.21-2.852C187.91 126.052 234.638 102.89 283 86l2.75-.968c12.407-4.321 20.694-5.096 33.188-.72m-29 5.562-1.962.605C274.683 94.606 261.815 99.567 249 105l-2.469 1.026C191.69 128.849 140.79 168.458 104 215a3429 3429 0 0 1-4.5 5.438l-2.096 2.632C95 226 95 226 92.616 228.485c-8.138 9.153-7.778 17.23-7.303 28.952q.062 2.718.116 5.434c.26 11.164.736 22.314 2.216 33.39.42 3.235.774 6.476 1.132 9.72 6.608 57.696 24.63 115.807 57.828 163.966 1.507 2.218 2.95 4.47 4.395 6.729q1.53 2.32 3.063 4.637l1.351 2.158c3.881 5.711 8.077 7.576 14.586 9.529l3.147.953a448 448 0 0 0 10.666 2.922l1.952.517C200.06 501.17 214.48 504.212 229 507l2.54.495c25.326 4.901 50.35 6.57 76.085 6.63l2.348.008c15.801.042 31.509-.429 47.152-2.82l3.473-.531c31.212-4.995 65.512-12 84.73-38.313C465.895 443.885 481.98 413.043 494 380l1.31-3.566c9.878-27.193 15.303-56.619 17.69-85.434l.243-2.468c.815-8.68 1.146-17.355 1.272-26.068q.048-2.53.143-5.058c.375-10.089.394-17.195-6.557-25.185L506 230a191 191 0 0 1-2.871-3.75 882 882 0 0 0-2.567-3.25l-1.412-1.785q-2.071-2.61-4.15-5.215l-2.281-2.879c-4.97-6.185-10.229-12.037-15.649-17.824a388 388 0 0 1-6.14-6.719l-1.493-1.662q-2.035-2.273-4.062-4.553c-2.108-2.097-3.643-3.282-6.375-4.363v-2c-1.413-1.469-1.413-1.469-3.312-3a284 284 0 0 1-9.813-8.75c-6.355-5.78-13.04-11.052-19.875-16.25l-2.141-1.642C411.717 137.08 399.16 128.762 386 121l-2.291-1.358c-44.86-26.879-44.86-26.879-93.771-29.767"/><path fill="#2B2324" d="m326.438 93.125 3.13 1.192c46.403 17.835 87.665 43.572 124.006 77.503 2.42 2.28 2.42 2.28 5.426 4.18v2l1.762.773c6.128 3.358 10.77 9.735 15.273 14.985 1.897 2.164 3.849 4.268 5.816 6.368 5.988 6.415 11.455 13.14 16.79 20.104 1.37 1.785 2.75 3.561 4.132 5.336 2.43 3.13 4.858 6.258 7.227 9.434l2.108 2.68c2.234 3.92 2.44 6.992 2.353 11.375v2.332a541 541 0 0 1-.086 7.488l-.05 5.205c-.92 76.444-25.654 152.855-73.051 213.257-1.161 1.516-2.255 3.084-3.34 4.655-7.903 11.12-21.681 14.204-34.184 18.133l-2.07.657c-14.617 4.629-28.954 8.06-44.118 10.406l-3.247.507c-15.486 2.255-31.067 2.488-46.69 2.43l-2.451-.007c-37.757-.12-74.163-5.517-110.799-14.618A718.409 718.409 0 0 1 177 495l-2.233-.597c-2.19-.595-4.37-1.217-6.548-1.848l-1.986-.534C158.827 489.797 155.809 484.31 152 478a264 264 0 0 0-2.34-3.379C131.95 449.314 118.52 420.962 108 392l-.861-2.334C102.288 376.402 99.05 362.774 96 349l-.684-3.06c-2.782-12.609-4.907-25.264-6.566-38.065l-.495-3.805a353 353 0 0 1-2.137-23.988c-.127-2.241-.274-4.481-.42-6.722-2.204-35.959-2.204-35.959 6.74-46.173a95 95 0 0 1 5.814-5.601c2.451-2.224 4.375-4.769 6.373-7.399 4.29-5.198 8.853-10.124 13.453-15.046a468 468 0 0 0 7.672-8.453c5.705-6.353 11.662-12.294 18.14-17.856 2.286-1.985 4.507-4.032 6.735-6.082 6.201-5.586 12.742-10.692 19.375-15.75l1.785-1.368c14.633-11.155 30.223-20.83 46.377-29.62a269 269 0 0 0 5.076-2.887C246.852 103.805 273.166 94.919 299 87l2.062-.702c7.943-1.222 18.058 4.019 25.375 6.827M129.125 193.688l-2.63 2.59c-5.933 5.925-11.268 12.17-16.495 18.722a423 423 0 0 1-2.75 3.277l-2.25 2.66-2.25 2.653-1.218 1.55C100 227 100 227 97.708 229.346c-8.338 9.353-7.863 17.726-7.395 29.716q.065 2.84.12 5.68c.105 4.611.27 9.218.465 13.826q.134 3.226.241 6.454C92.64 325.34 102.61 365.474 117 403l1.688 4.512c3.204 8.428 7.108 16.458 11.259 24.45 1.04 2.011 2.057 4.031 3.073 6.054C146.734 467.098 146.734 467.098 169 488c2.107.68 4.235 1.3 6.375 1.867l3.698.987 3.927 1.021 2.036.533c4.65 1.217 9.305 2.41 13.964 3.592l2.974.76c12.312 3.102 24.763 5.32 37.276 7.428l2.266.384c15.83 2.666 31.609 4.623 47.672 5.053l3.763.108c3.683.1 7.366.184 11.049.267l3.1.087c33.186.885 66.442-4.426 97.846-15.078 2.948-.974 5.91-1.846 8.894-2.704 13.015-3.987 19.543-9.636 26.754-21.096 1.342-2.109 2.752-4.14 4.215-6.166C462.344 440.64 475.992 413.894 487 386l.913-2.268c11.17-27.762 16.61-57.46 19.793-87.113.236-2.106.512-4.208.8-6.308.952-7.61.994-15.285 1.119-22.944q.062-2.977.184-5.951c.582-14.428-.984-22.707-10.809-33.416q-1.77-2.244-3.504-4.516a590 590 0 0 0-3.058-3.734l-1.66-2.025a318 318 0 0 0-11.583-13.319 172 172 0 0 1-3.624-4.076c-4.77-5.567-9.866-10.778-15.059-15.948a1509 1509 0 0 1-4.33-4.337C450.96 174.819 445.654 169.757 440 165l-2.73-2.3c-35.465-29.038-74.307-51.721-117.457-67.387l-3.6-1.317-3.381-1.195-2.977-1.058C255.12 77.49 164.182 158.96 129.125 193.688"/><path fill="#F6F6F5" d="M239 292c.313 3.125.313 3.125 0 7l-2.531 2.5c-3.331 3.765-2.842 7.39-2.553 12.203l.272 3.172.212 3.242q.266 3.944.6 7.883l2.898-1.473c4.56-1.943 8.823-2.025 13.727-1.964l2.696.029c15.406.412 27.294 7.243 41.679 13.408v60c-5.015-1.003-9.662-2.516-14.473-4.184-6.245-2.132-11.688-3.01-18.277-3.003l-2.139-.002c-5.328.053-10.004.73-15.111 2.189l2.352-.477c17.052-2.446 32.33-.486 47.648 7.477v5l-3.184-1.242c-16.51-6.379-31.121-8.38-48.816-5.758v4l-5.86.684c-2.096.31-4.09.788-6.14 1.316l-.563-2.528a9316 9316 0 0 0-3.104-13.86c-1.945-8.648-3.95-17.273-6.145-25.862-2.683-10.617-2.683-10.617-3.688-15.312l-.531-2.442L218 342l1.552-1.262c1.748-1.7 1.748-1.7 1.33-4.386l-.683-3.157-.713-3.457-.798-3.613q-.75-3.525-1.489-7.055l-.692-3.163c-.473-2.71-.604-5.165-.507-7.907l-2.687-.187c-4.151-1.019-5.674-2.495-8.313-5.813-.637-2.672-.637-2.672-1-5l2.824.105c9.737.207 18.753-.525 27.918-4.207C237 292 237 292 239 292"/><path fill="#020603" d="M280 253c2.857.35 3.9.896 5.93 3.004l1.945 2.558 2.105 2.715c1.261 1.7 2.498 3.42 3.696 5.164l1.512 2.184 1.292 1.977c1.506 1.674 1.506 1.674 4.196 1.609L303 272l.816-2.21c1.154-2.719 2.472-4.973 4.122-7.415l1.527-2.29A36 36 0 0 1 314 255c-.555 5.056-2.973 8.829-5.5 13.125q-1.238 2.127-2.469 4.258l-1.107 1.887c-3.02 5.656-2.11 12.227-2.11 18.463-.001 2.259-.02 4.517-.039 6.775q-.005 2.153-.005 4.305l-.013 3.957c-.011 3.38-.011 3.38 2.243 6.23 3.372.668 3.372.668 7 0 6.027-4.625 8.653-11.06 11.313-17.937 2.379-5.811 5.337-9.621 9.687-14.063a1228 1228 0 0 0 4.058-4.47c1.971-2.186 3.957-4.357 5.942-6.53l1.645 1.242 2.168 1.633 2.144 1.617A129 129 0 0 0 354 279c.879 2.715.879 2.715 1.563 5.938.794 3.691 1.322 5.89 3.437 9.062-.137 1.988-.137 1.988-.687 4.313l-.598 2.636L357 304a2958 2958 0 0 0-1.625 7.625L354 318h-6l-1 6h-5l-1.312-3.437L339 317l-3-1-1 8 2 1-3.812 1.066c-10.096 2.89-19.672 6.183-29.196 10.614C301 338 301 338 299 338v60l10-4 4 1q-2.935 1.256-5.875 2.5l-3.305 1.406C301 400 301 400 299 400l1 4 2.746-1.242c13.294-5.93 23.811-7.038 38.254-6.758v1h-14c2.228 3.632 3.58 5.58 7 8 5.845 1.323 11.652 1.352 17.625 1.438q2.544.078 5.086.167 5.149.17 10.299.28c4.65.1 9.296.258 13.943.44q10.022.383 20.047.675v1a203 203 0 0 1-21.871 1.133l-3.038.003q-3.165 0-6.33-.006-4.739-.005-9.478.007A624 624 0 0 1 322 409l.992 1.766c1.403 3.11 1.137 5.867 1.008 9.234a107 107 0 0 1-5.062-7.187c-1.64-2.865-1.64-2.865-3.938-3.813-4.016-.45-4.016-.45-7.555 1.129-1.945 2.518-2.688 5.028-3.632 8.058l-1.043 3.293L302 424h-2l-.734-2.45c-2.4-7.939-2.4-7.939-7.266-14.55-5.721 2.33-9.32 7.229-13 12 .964-9.41.964-9.41 2-14-4.563 1.597-8.23 2.929-12 6-5.149 1.716-10.562.899-15.937.688l-3.616-.108-3.474-.13-3.18-.115c-2.733-.328-4.45-.935-6.793-2.335l3.402-.332c15.652-1.431 15.652-1.431 28.598-9.668l1-2q-4.563.465-9.125.938l-2.594.263c-4.458.463-8.868.996-13.281 1.799v-2c17.357-5.143 35.03-1.845 51 6l1-4a442 442 0 0 0-6.219-2.066 102 102 0 0 1-5.5-2.024c-12.758-4.717-26.983-3.828-40.281-1.91 5.887-5.416 15.16-4.413 22.727-4.285 10.344.467 19.76 4.48 29.273 8.285v-60l-9-3a537 537 0 0 1-10.693-4.482c-8.24-3.48-15.413-4.849-24.37-4.768l-2.603-.023c-5.163.015-9.446.602-14.334 2.273-1.129-5.361-1.097-10.553-1-16 27.565-2.643 27.565-2.643 36.887 2.125 2.495 1.033 4.438 1.025 7.113.875-4.702-16.288-21.213-28.295-34.086-38.293L242 275v-2c5.241 1.807 9.047 4.944 13.379 8.32 2.663 2.04 2.663 2.04 6.621 1.68l-1.488-2.477c-1.813-4.225-1.859-7.379-1.7-11.898l.042-2.23c.035-1.799.088-3.597.146-5.395h3l.297 2.492c1.624 12.129 6.185 21.747 11.683 32.516 1.276 2.5 2.498 5.006 3.696 7.547l1.512 3.195 1.292 2.797c2.407 3.885 5.207 6.015 9.52 7.453 2.333.04 4.667.044 7 0 4.672-12.249 2.35-28.272-2.29-40.36-3.346-7.05-7.611-13.897-13.417-19.199C280 256 280 256 280 253"/><path fill="#F5F5F5" d="M364.629 330.719c6.117 4.518 6.117 4.518 7.371 8.281-.358 2.498-.358 2.498-1.04 5.504l-.752 3.399-.833 3.66a4129 4129 0 0 0-2.107 9.552c-1.729 7.9-3.22 15.846-4.706 23.795l-.582 3.094-.503 2.713C361 393 361 393 360 396c-3.863-.604-7.245-1.805-10.84-3.281-14.203-4.726-29.566-1.76-43.16 3.281l-2.29 1.164C302 398 302 398 299 398v-60c46.37-19.873 46.37-19.873 65.629-7.281"/><path fill="#FAEC04" d="M239 292c.313 3.125.313 3.125 0 7l-2.52 2.77c-2.251 2.564-2.473 3.166-2.855 6.796q.145 2.002.375 3.997l.187 2.188c.656 7.039 1.691 14.048 2.795 21.029.751 4.81 1.17 9.35 1.018 14.22l5-1-1.437 1.063c-2.242 2.779-2.234 5.451-2.563 8.937l5-1-1.457 1.207c-1.917 2.228-2.02 3.581-2.23 6.48l-.2 2.45L240 370l5-1-4 2 3 22 8-1c16.149-1.165 29.497.461 44 8v5l-3.184-1.242c-16.51-6.379-31.121-8.38-48.816-5.758v4l-5.86.684c-2.096.31-4.09.788-6.14 1.316l-.563-2.528a9316 9316 0 0 0-3.104-13.86c-1.945-8.648-3.95-17.273-6.145-25.862-2.683-10.617-2.683-10.617-3.688-15.312l-.531-2.442L218 342l1.552-1.262c1.748-1.7 1.748-1.7 1.33-4.386l-.683-3.157-.713-3.457-.798-3.613q-.75-3.525-1.489-7.055l-.692-3.163c-.473-2.71-.604-5.165-.507-7.907l-2.687-.187c-4.151-1.019-5.674-2.495-8.313-5.813-.637-2.672-.637-2.672-1-5l2.824.105c9.737.207 18.753-.525 27.918-4.207C237 292 237 292 239 292"/><path fill="#272223" d="m374.5 264.875 2.252.006c8.432.063 16.836.568 25.248 1.119.75 1.688.75 1.688 1 4l-1.91 2.293c-2.706 3.505-2.523 5.641-2.527 10.02-.201 6.303-.906 11.14-5.563 15.687-6.224 4.237-13.711 3.75-21 3-6.668-1.838-10.636-5.98-14.094-11.86-1.064-2.513-1.317-4.674-1.531-7.39l-.227-2.703L356 277l-2.75-.812c-2.994-1.094-4.966-1.992-7.25-4.188v-3c3.685-2.334 7.39-2.396 11.625-2.562 5.839-.26 11.017-1.6 16.875-1.563"/><path fill="#292425" d="m401 414 2 1c-1.152 2.468-2.048 4.048-4 6a253 253 0 0 1-6 2l-1 1c.389 3.497.886 6.658 2 10 3.306.854 3.306.854 7 1 2.462-1.792 2.462-1.792 4-4l-1-2-4 2c-1.5-1.375-1.5-1.375-3-3v-2c1.969-1.727 1.969-1.727 4.5-3.625l2.531-1.914L406 419l7 7c0 5.55-1.648 8.584-5.324 12.488-3.326 3-6.318 4.346-10.738 4.887-3.318-.424-5.227-1.461-7.938-3.375l1.563 2.75C392 446 392 446 391.875 448.25 391 450 391 450 388 452c-4.227-.338-7.583-2.136-11.312-4.062l-3.239-1.66L371 445l1.313 2.082 1.687 2.73 1.688 2.708C377 455 377 455 377 458c-5.041 2.815-9.226 4.519-15 5l-1-2-8 2-1 5-7 2v-28l9-2 1.863 2.082 2.45 2.73 2.425 2.708A165 165 0 0 0 366 453l-8-14c3.36-3.36 4.376-3.814 9-4 3.21 1.215 3.21 1.215 6.375 2.938l3.21 1.714L379 441l-1.312-2.117-1.688-2.758-1.687-2.742C373 431 373 431 373 429c2.313-1.687 2.313-1.687 5-3 3 1 3 1 4 3l1.188-3.187c1.606-3.752 3.728-6.105 6.812-8.813l1.875-1.812c3.089-1.726 5.655-1.445 9.125-1.188"/><path fill="#241C1D" d="M256 444c5.285 0 5.285 0 8 1 1.899 2.468 2.985 5.07 4 8l1.95-2.512c3.64-2.97 5.05-2.938 9.532-2.572l2.33.272 2.39.212c1.934.176 3.867.385 5.798.6l.076 1.728q.175 3.855.361 7.71l.12 2.72.127 2.588.11 2.396c.012 1.872.012 1.872 1.206 2.858 1.666.04 3.334.043 5 0 1.65-3.3 1.383-6.991 1.563-10.625l.13-2.43q.159-2.972.307-5.945h15l4 11 1-13 9-1 5 10 1-12h7v26l-9 1-6-13-.402 3.246-.536 4.192-.263 2.142c-.686 5.307-.686 5.307-1.799 6.42q-3.5.062-7 0c-2.85-5.6-5.6-11.191-8-17l-.227 2.668c-1.21 10.689-1.21 10.689-4.148 13.644-5.234 2.437-9.949 2.57-15.625 1.688-3.074-1.808-4.43-2.86-6-6a70 70 0 0 1-.316-4.133l-.127-2.441-.12-2.551-.13-2.574q-.159-3.15-.307-6.301l-1.875 2C277 456 277 456 275 456v2l-2.375 1.5c-3.784 3.604-3.98 7.458-4.625 12.5l-9-1 .5-2.5c1.123-7.859.32-12.84-2.625-20.18C256 446 256 446 256 444"/><path fill="#2A2526" d="M451 309v7l-2 1v3l5 1-1-1c-.539-3.953-.306-5.56 2-8.875 3.341-2.367 5.06-2.89 9.063-2.602 3.552.874 4.948 2.493 6.937 5.477.709 5.58.194 9.21-3 14-3.404 2.648-7.845 2.507-12 3l2.441 3.07q1.563 2.027 3.122 4.055l1.615 2.016c3.858 5.077 3.858 5.077 3.662 9.351L466 352l-3.324-.254-4.363-.308-2.186-.17c-3.9-.268-7.338-.277-11.127.732l-1 6-4 1 1 5 6 1-.25-3.25C447 358 447 358 451 354l11 6c-.74 4.437-1.51 7.766-3.062 11.875l-1.098 2.93L457 377l-5-1c-1.16-3.479-.775-4.342.438-7.687l.87-2.45L454 364l-2-1-.25 2.25c-.934 3.425-1.896 4.647-4.75 6.75-3.437 1-3.437 1-7 1-2.802-1.766-4.515-3.03-6-6-.512-6.144-.01-9.046 4-14l2-2h4l-1-3-3-1v-6h6q.352-2.953.695-5.906C447 333 447 333 447.813 330.313L448 328l-1.937-2.187c-2.662-3.63-2.635-6.09-2.458-10.497.395-2.316.395-2.316 2.207-4.941C448 309 448 309 451 309"/><path fill="#D6271A" d="M210 248c3.031 1.059 3.956 1.929 5.668 4.715l1.52 3.222 1.542 3.215C220 262 220 262 221 265h3l3-9c4 2 4 2 5.25 4.5.974 4.545.915 8.871.75 13.5l6-5c.163 2.732.281 5.453.375 8.188l.152 2.33c.117 4.516-.027 5.946-3.238 9.388-9.787 6.23-20.168 7.819-31.562 5.399C202 293 202 293 200.574 290.609l-.887-2.859-.94-2.973c-.784-2.913-1.422-5.775-1.747-8.777l3 2c1.655.385 3.322.728 5 1l-.656-1.941c-1.655-5.141-2.902-9.593-2.344-15.059l2-3h2l1.953 5.86c1.267 2.59 2.935 4.202 5.047 6.14l-.656-2.746c-1.581-6.916-2.71-13.162-2.344-20.254"/><path fill="#251819" d="M151.313 227.75c3.822.26 5.165.437 7.687 3.25.75 2.688.75 2.688 1 5l1-1c1.853-.072 3.708-.084 5.563-.062l3.066.027L172 235c-.523 2.763-1.109 5.326-2 8l-2.59.148-3.347.227c-1.103.07-2.205.14-3.34.21L158 244l-1 2 8 4c-.617 4.252-1.605 8.168-2.937 12.25A126 126 0 0 0 158 279c-3.42 1.148-5.721.834-9.203.004l-2.969-.693-3.078-.748-3.125-.737q-3.816-.901-7.625-1.826c-.225-5.404.511-9.813 2-14.937l.578-2.073c.466-1.665.943-3.328 1.422-4.99l5 1a1136 1136 0 0 1-.437 4.75l-.247 2.672A44 44 0 0 1 139 268h4l.438-3.75c.349-2.815.766-5.52 1.562-8.25l5 1a979 979 0 0 1-.437 4.25l-.247 2.39c-.292 2.184-.737 4.237-1.316 6.36l5 1 .402-2.555.536-3.32.527-3.305C155 259 155 259 156 257h3l-1.728-.763a944 944 0 0 1-7.71-3.487l-2.72-1.2-2.588-1.19-2.396-1.08C140 248 140 248 139.133 246.08c-.236-3.684 1.973-6.658 3.742-9.768l1.145-2.087c3.416-6.182 3.416-6.182 7.292-6.475"/><path fill="#080505" d="m332.313 395.938 2.533.013q3.077.02 6.154.049v1h-14c2.228 3.632 3.58 5.58 7 8 5.845 1.323 11.652 1.352 17.625 1.438q2.544.078 5.086.167 5.149.17 10.299.28c4.65.1 9.296.258 13.943.44q10.022.383 20.047.675v1a203 203 0 0 1-21.871 1.133l-3.038.003q-3.165 0-6.33-.006c-3.16-.005-6.318 0-9.478.007A624 624 0 0 1 322 409l.992 1.766c1.403 3.11 1.137 5.867 1.008 9.234a107 107 0 0 1-5.062-7.187c-1.64-2.865-1.64-2.865-3.938-3.813-4.016-.45-4.016-.45-7.555 1.129-1.945 2.518-2.688 5.028-3.632 8.058l-1.043 3.293L302 424h-2l-.734-2.45c-2.4-7.939-2.4-7.939-7.266-14.55-5.721 2.33-9.32 7.229-13 12 .964-9.41.964-9.41 2-14-4.563 1.597-8.23 2.929-12 6-5.149 1.716-10.562.899-15.937.688l-3.616-.108-3.474-.13-3.18-.115c-2.733-.328-4.45-.935-6.793-2.335l3.402-.332c14.193-.976 14.193-.976 26.036-7.918 2.705-2.453 4.326-3.216 8-3.062 5.629.906 10.713 3.397 15.765 5.96 4.673 2.269 7.6 2.718 12.797 1.352a106 106 0 0 0 6.75-3.062C314.694 399 314.694 399 318 399v-2c4.77-1.234 9.425-1.113 14.313-1.062"/><path fill="#01984B" d="M344 273c4.882 2.088 9.105 3.896 11.262 8.965.48 2.095.896 4.206 1.238 6.328.355 2.916.355 2.916 2.5 5.707-.262 3.41-1.19 6.682-2 10l-.41 2.14c-.402 1.86-.402 1.86-1.59 4.86-3.895 2.107-7.456 2.298-11.832 2.414l-3.916.117-4.065.094-4.123.117q-5.031.141-10.064.258c0-7.54 5.674-12.88 10.688-18.125 4.945-4.818 10.34-8.446 16.312-11.875l-1.645.656-2.168.844-2.144.844C340 287 340 287 337 287c1.764-4.972 4.394-9.434 7-14"/><path fill="#241819" d="M194 406c4.225.532 6.586 2.917 9.688 5.688l2.949 2.574c2.643 3.062 3.274 4.729 3.363 8.738-1.687 2.375-1.687 2.375-4 4h-4l.813 2.688C203 433 203 433 200.875 435.875c-3.208 2.371-4.03 2.661-7.875 2.125-2.5-1.61-2.5-1.61-5-3.75l-2.5-2.11L183 430a826 826 0 0 0-5-4c1.536-3.565 3.684-6.039 6.313-8.875 3.334-3.635 6.57-7.303 9.687-11.125"/><path fill="#251819" d="M231 434c5.503.611 5.503.611 7.625 2.27 3.273 4.12 3.704 10.625 3.375 15.73h2l.313-2.625c.721-3.542 1.958-6.218 3.687-9.375 2.02.602 4.021 1.273 6 2 1 2 1 2 .287 4.338l-1.158 2.889c-.41 1.03-.819 2.062-1.24 3.125l-1.327 3.273-1.314 3.297A1748 1748 0 0 1 246 467c-3.375-.547-5.082-1.055-8-3-1.168-3.258-1.168-3.258-2.187-7.125l-.538-1.996c-.435-1.624-.856-3.251-1.275-4.879l-4 10a109 109 0 0 1-7-1l-1-2c.844-2.432 1.748-4.76 2.75-7.125l1.68-4.074.823-1.982c1.332-3.243 2.538-6.529 3.747-9.819"/><path fill="#231819" d="M155 318c1.4 4.988 1.4 4.988 1 8-2.302 2.839-5.08 4.832-8 7l-3 3 13-1 1 7q-5.655 1.256-11.312 2.5l-3.249.723-3.115.683-2.872.635C136 347 136 347 133 347c-1.585-4.756-1.585-4.756-1-8 2.954-3.771 6.37-6.887 10-10h-12l-1-7c8.748-2.284 16.9-4.186 26-4"/><path fill="#F1F1F1" d="m373 339 4 3-.437 2.719c-1.414 9.503-1.79 18.682-1.563 28.281h-1l-1-12-.595 2.763q-1.112 5.153-2.23 10.305-.481 2.214-.958 4.43c-1.845 8.57-3.778 17.076-6.217 25.502-3-.945-5.852-1.93-8.691-3.29-12.374-5.757-27.587-5.61-40.579-1.71a225 225 0 0 0-14.73 6v-5c16.302-7.47 33.78-11.648 51.48-5.95l2.52.95 4.157 1.56 2.182.817L361 398l.511-3.002c1.832-10.635 3.895-21.21 6.078-31.778q.817-3.96 1.626-7.923l1.043-5.07.486-2.377c.625-3.016 1.281-5.925 2.256-8.85"/><path fill="#252021" d="M367.75 147.75c3.273 1.584 5.652 2.842 7.25 6.25v4h-7l-.625-1.937c-1.266-2.365-1.266-2.365-4.312-3-3.022-.37-3.022-.37-4.875 1.25-2.525 3.587-2.5 6.327-2.188 10.687 3.228 2.152 4.284 2.2 8 2l1-2-5-1 1-5c4.318.508 8.033 1.197 12 3-.543 4.565-1.795 7.973-4 12-7.793.645-12.923.123-19-5-2.229-1.95-2.862-3.101-3.309-6.004-.325-5.834.843-9.312 4.309-13.996 5.301-4.441 10.663-3.75 16.75-1.25"/><path fill="#312C2D" d="M315 332q-3.435 1.506-6.875 3l-1.973.867C301.227 338 301.227 338 299 338v60l10-4 4 1q-2.935 1.256-5.875 2.5l-3.305 1.406C301 400 301 400 299 400l1 4 2.922-1.348 3.828-1.714 1.922-.893c3.602-1.595 5.586-2.253 9.328-1.045a585 585 0 0 1-8.562 4.063l-2.424 1.181c-5.11 2.357-8.393 3.322-14.014 1.756-2.3-.908-4.572-1.89-6.812-2.937-13.988-6.245-27.29-6.07-42.188-3.063v-2c17.357-5.143 35.03-1.845 51 6l1-4a442 442 0 0 0-6.219-2.066 102 102 0 0 1-5.5-2.024c-12.758-4.717-26.983-3.828-40.281-1.91 5.887-5.416 15.16-4.413 22.727-4.285 10.344.467 19.76 4.48 29.273 8.285v-60l-9-3c4-1 4-1 6.375 0 4.045 1.541 6.966.74 10.867-1q2.322-1.095 4.61-2.258c2.496-.862 3.698-.618 6.148.258"/><path fill="#252021" d="m401 414 2 1c-1.152 2.468-2.048 4.048-4 6a253 253 0 0 1-6 2l-1 1c.389 3.497.886 6.658 2 10 3.306.854 3.306.854 7 1 2.462-1.792 2.462-1.792 4-4l-1-2-4 2c-1.5-1.375-1.5-1.375-3-3v-2c1.969-1.727 1.969-1.727 4.5-3.625l2.531-1.914L406 419l7 7c0 5.55-1.648 8.584-5.324 12.488-3.297 2.975-6.311 4.313-10.676 4.95-3.979-.58-5.935-1.84-9-4.438-3.449-4.629-4.678-8.138-4.383-13.926.836-4.527 3.798-6.593 7.195-9.387 3.721-1.97 6.034-2.086 10.188-1.687"/><path fill="#262223" d="M383 156c4.75 1.875 4.75 1.875 7 3-1.694 4.627-4.132 8.418-6.855 12.5-1.37 2.99-1.1 4.41-.145 7.5l4 1q1.659-2.342 3.313-4.687l1.863-2.637c1.71-2.509 3.29-5.057 4.824-7.676 4.75 1.875 4.75 1.875 7 3-.902 4.248-2.986 7.514-5.312 11.125l-1.186 1.918c-2.111 3.298-3.69 5.734-7.502 6.957-5.496 1.022-8.657-1.34-13.047-4.297-3.207-2.796-3.84-4.773-4.355-8.992.507-4.679 2.182-7.304 4.84-11.086l1.275-1.902c2.98-4.417 2.98-4.417 4.287-5.723"/><path fill="#272223" d="m335.227 137.793 2.398.394 2.414.356C342 139 342 139 343 140c.3 1.995.54 3.998.754 6.004l.4 3.682.409 3.876.42 3.89q.515 4.773 1.017 9.548l-8-1-1-5-9-1-1 2-9-1c3.563-6.695 7.534-12.873 12-19l1.422-2.305C333 138 333 138 335.227 137.793"/><path fill="#251819" d="M159.688 347.938c4.223 3.766 5.907 8.766 6.875 14.25-.767 3.833-2.756 6.212-5.563 8.812-2.44 1.466-4.956 2.465-7.625 3.438l-2.023.81c-4.936 1.89-4.936 1.89-8.352.752l-1-7 3.246-1.277 4.191-1.66 2.143-.842c3.467-1.183 3.467-1.183 6.42-3.221.167-2.5.167-2.5 0-5l-1-1c-5.425.346-9.8 1.994-14.766 4.16C140 361 140 361 137 361c-1.257-2.906-2-4.796-2-8a649 649 0 0 1 7.063-3l1.99-.867c5.306-2.196 10.028-3.151 15.635-1.195M220.637 425.664c1.833 1.036 3.611 2.168 5.363 3.336-.589 9.274-2.759 18.015-5 27-4.75-.75-4.75-.75-7-3-.125-3.125-.125-3.125 0-6-3.371-1.498-5.204-2-9-2-4 0-4 0-6.25-2l-1.75-2a819 819 0 0 1 10-8l2.938-2.383 2.875-2.242 2.644-2.102C218 425 218 425 220.637 425.664"/><path fill="#242021" d="m447 216 2 6-15 8v7c5.88-1.198 10.557-3.152 15.8-6.074C452 230 452 230 455 231c1.188 3.063 1.188 3.063 2 6-16.444 9.706-16.444 9.706-24 8-4.635-4.24-6.714-8.328-7.375-14.5.457-4.262 1.434-5.431 4.375-8.5 2.363-1.45 4.58-2.69 7.063-3.875l1.892-.969c4.656-2.286 4.656-2.286 8.045-1.156"/><path fill="#231819" d="M204 163c5.843 2.937 11.229 6.422 16.563 10.188l1.914 1.333c1.547 1.107 3.04 2.287 4.523 3.479 0 2 0 2-1.625 3.688-2.375 1.312-2.375 1.312-5.25.75-3.27-.753-3.27-.753-6.5 1.187L211 186a100 100 0 0 0 0 5c-4.108 4-4.108 4-7 4a1499 1499 0 0 1-3.062-11.187l-.893-3.198-.83-3.095-.778-2.841c-.48-2.94-.343-4.85.563-7.679 2.563-2.312 2.563-2.312 5-4"/><path fill="#282324" d="M451 309v7l-2 1v3l5 1-1-1c-.539-3.953-.306-5.56 2-8.875 3.341-2.367 5.06-2.89 9.063-2.602 3.552.874 4.948 2.493 6.937 5.477.709 5.58.194 9.21-3 14-4.22 2.62-8.175 2.514-13 2-3.867-.917-6.93-1.869-9.7-4.797-2.273-3.852-1.962-7.873-1.3-12.203 2.275-3.296 2.974-4 7-4"/><path fill="#281819" d="M164.625 205.875 168 206c-.613 2.962-1.254 4.38-3 7-2.125.688-2.125.688-4 1l-1 4c2.732-1.561 5.052-3.048 7.375-5.187 3.503-2.42 5.449-2.484 9.625-1.813 3 2.063 3 2.063 5 5 .117 6.333-2.533 11.362-6.812 15.938-3.101 1.506-5.795 1.258-9.188 1.062 0-5.364 0-5.364 2-8 3.125-.75 3.125-.75 6-1l1-5c-3.38 1.094-5.207 2.19-7.875 4.625C164 226 164 226 160.375 226.563 157 226 157 226 154.563 224.375c-2.118-3.22-2.295-4.57-1.563-8.375 6.079-9.934 6.079-9.934 11.625-10.125"/><path fill="#282324" d="M412 176c4.274 2.308 7.433 4.854 10 9 .31 3.165.427 5.147-1 8-2.875-1.289-5.05-2.493-7-5-.687-2.687-.687-2.687-1-5l-3-1c1.404 3.409 2.692 6.522 4.688 9.625 1.569 2.84 1.95 4.185 1.312 7.375-2.607 3.555-4.05 4.845-8.437 5.563-5.548-.876-8.404-3.16-11.938-7.438-1.794-3.45-2.22-5.3-1.625-9.125 1.5-1.875 1.5-1.875 3-3 2.5 1.625 2.5 1.625 5 4 .188 3.125.188 3.125 0 6l2 2h3c-.405-3.338-1.317-5.68-3.062-8.5-1.767-2.984-2.7-4.973-1.938-8.5 2.851-4.058 5.154-4.775 10-4"/><path fill="#221D1E" d="M355 441c1.508 1.335 1.508 1.335 2.91 3.02.773.915.773.915 1.56 1.85l1.592 1.942 1.604 1.909A482 482 0 0 1 367 455l1.934 2.262L370 459l-1 3-7 1-1-2-8 2-1 5-7 2v-28c7.023-2.34 7.023-2.34 10-1"/><path fill="#272223" d="M454.438 243.313c3.635.701 4.182.885 6.437 3.5 3.123 4.684 3.814 8.676 3.125 14.187-1.5 2-1.5 2-3 3l-3-1c-.693-3.724-1.111-7.21-1-11l-3-1 .105 3.176q.043 2.068.082 4.137l.077 2.091c.073 5.078.073 5.078-1.534 7.545-3.075 1.868-6.32 1.764-9.73 1.051-3.683-2.802-5.852-5.51-7-10-.372-2.864-.28-5.054 0-8 2-2.5 2-2.5 4-4l3 1c1.188 3.063 1.188 3.063 2 6l-2 1v5l4 2-.14-2.668-.11-3.52-.14-3.48c.619-5.284 2.579-7.97 7.827-9.02"/><path fill="#D72227" d="M221 337v3l-2 2c.1 2.304.1 2.304.7 4.918.2.99.402 1.98.61 3.001 1.08 4.822 2.266 9.61 3.502 14.394 2.1 8.274 4.143 16.557 6.063 24.875l.652 2.768.59 2.587.52 2.25c.4 2.436.424 4.743.363 7.207l1.5-1c3.59-1.436 6.645-1.129 10.5-1v-2c8.488-2.57 16.146-3.386 25-3-1.965 4.407-4.755 6.8-9 9-6.515 2.172-13.178 3.344-20 4v1l-16-1v-1l8-1-1.32-3.242c-2.06-5.502-3.283-11.158-4.555-16.883l-.776-3.428q-.792-3.5-1.576-7c-.967-4.312-1.947-8.622-2.928-12.93l-1.284-5.662-.58-2.566-.504-2.228a137 137 0 0 0-1.019-4.11c-.728-3.102-.741-5.782-.458-8.951 2-2.437 2-2.437 4-4"/><path fill="#251819" d="M234 149c2.375 2 2.375 2 4 4-3.593 2.892-5.177 4.053-9.875 3.75L225 156v4l3.563-1c3.919-.957 7.386-1.467 11.437-1 2.438 1.5 2.438 1.5 4 4 .883 4.975.883 4.975 0 8-2.788 3.448-5.806 5.602-10 7-6.26.455-6.26.455-9.437-1.5L223 174l1-3c4.08-1.855 6.705-2.193 11-1h2l-1-4-2.922.36-3.828.39-3.797.422C222 167 222 167 219.586 165.23 218 163 218 163 217.375 159.563 218 156 218 156 220.75 153.188c4.704-3.167 7.418-4.917 13.25-4.188"/><path fill="#2D2829" d="M403 405c7.932 3.615 13.997 10.853 20 17-1.152 2.468-2.048 4.048-4 6-3.62-.292-5.324-1.996-7.75-4.562l-1.86-1.942L408 420c-2.541 1.2-4.411 2.333-6.625 4.125C399 426 399 426 397 426l4 4 4-2 1 3c-2.187 2.563-2.187 2.563-5 5-3.26.08-4.624-.729-7.25-2.625-2.325-3.155-2.68-5.484-2.75-9.375 1.99-3.396 5.41-3.855 9-5l2-2c-.389-3.013-1.265-4.397-3-7l1-1-9-1 1-2 2.152.035c.92.01 1.839.018 2.786.027l2.777.036c2.25.161 2.25.161 3.285-1.098"/><path fill="#261819" d="M130 277a617 617 0 0 1 15.25 6.313l2.797 1.146 2.656 1.154 2.427 1.025C155 288 155 288 155.796 290.473c.22 2.722-.118 4.892-.796 7.527a1604 1604 0 0 1-17.437 5.188l-3.56 1.042C131 305 131 305 128 305v-8l2.703-.586 3.547-.789 3.516-.773c3.456-.792 3.456-.792 7.234-2.852l-15-6z"/><path fill="#251819" d="m190 174 4 2v4l-4 2c1.404 2.473 2.67 4.67 4.688 6.688L196 190v2h2a105 105 0 0 1 4 5c-1.514 3.785-2.014 4.007-6 6l-12-12c-3.917 1.855-3.917 1.855-7 4l-4-4c1.107-3.32 1.946-4.058 4.563-6.25.712-.605 1.425-1.21 2.16-1.832L182 181q2.255-1.965 4.5-3.937z"/><path fill="#262122" d="M427 191a175 175 0 0 1 10.375 11.063l1.402 1.564c3.244 3.8 3.244 3.8 3.141 6.666-1.217 2.263-2.566 2.796-4.918 3.707l-5-5-14 11-5-5v-3a93 93 0 0 1 6.5-5.187l1.879-1.405A634 634 0 0 1 426 202l-1-2.25c-1-2.75-1-2.75-1-6.75z"/><path fill="#261819" d="M160 374h2q1.007 1.935 2 3.875l1.125 2.18C166 382 166 382 166 384l11-1-3.125 3.625C172.19 388.77 172.19 388.77 171 391c.341 3.191.341 3.191 2 6l2 6-1.828-1.164-2.422-1.461-2.39-1.477c-2.32-1.166-2.32-1.166-4.555-.18-2.099 1.49-3.292 3.219-4.805 5.282h-2v-11l-9-5c4.216-2.108 6.398-2.177 11-2z"/><path fill="#282324" d="M437 374h1l1 12 11 1c-2.928 2.928-5.298 4.272-9 6l1 12-5.273-4.59c-1.683-1.48-1.683-1.48-3.727-2.41-1.727.77-1.727.77-3.5 1.938C426.2 402 426.2 402 424 402l.938-2.625L426 396l1-2.937c0-4.815-2.7-6.696-6-10.063h11z"/><path fill="#2A1819" d="m295.313 133.938 2.244.013q2.722.02 5.443.049c.262 5.09-.52 6.753-3.687 10.723-2.815 4.884-3.375 10.779-4.313 16.277h-8c.295-7.658 3.372-13.343 7-20h-12v-6c4.438-1.112 8.77-1.115 13.313-1.062"/><path fill="#4A3131" d="M234 313c1.668 2.502 2.624 4.411 3.625 7.188.39 1.073.39 1.073.79 2.167.192.543.386 1.086.585 1.645h7l-.062-2.437C246 319 246 319 247 318c2-.04 4-.043 6 0l1 5h2v-5l4-1c1.892 2.386 3.024 4.072 4 7 2.015.733 2.015.733 4 1l1-5 5-1c3.096 3.509 4.742 6.492 6 11-3.543 1.181-4.56.5-7.793-1.113-6.764-2.718-13.067-3.202-20.27-3.137l-2.603-.023c-5.163.015-9.446.602-14.334 2.273-1.036-5.05-1.103-9.874-1-15"/><path fill="#272323" d="M458 287c2.75-.375 2.75-.375 6 0 2.125 2.875 2.125 2.875 4 6 2.1 1.389 2.1 1.389 4 2v7c-9.023.84-17.94 1.122-27 1v-7l16-2-3-5z"/><path fill="#281819" d="M271.625 135.875 274 136c2.419 8.812 4.193 17.835 4 27h-7c-1.385-5.455-2.24-10.367-2-16l-2.875 2C263 151 263 151 261 151l-1-6 2.375-.687c2.828-1.077 2.828-1.077 3.813-3.813L267 138c2-2 2-2 4.625-2.125"/><path fill="#F2F1E6" d="M221 339c2.026 3.544 2.916 7.243 3.813 11.188l.509 2.204c2.458 10.82 4.561 21.717 6.678 32.608l.514 2.631C235 400.411 235 400.411 235 404h-3l-.563-2.528a9316 9316 0 0 0-3.104-13.86c-1.945-8.648-3.95-17.273-6.145-25.862-2.683-10.617-2.683-10.617-3.688-15.312l-.531-2.442c.031-1.996.031-1.996 1.5-3.773z"/><path fill="#F1F0F0" d="M296 400v5l-3.184-1.242c-16.51-6.379-31.121-8.38-48.816-5.758l1-4c16.969-5.796 35.497-2.059 51 6"/><path fill="#271819" d="M155 307v9h-26v-8c8.68-.603 17.293-1.136 26-1"/><path fill="#231819" d="M170 193c4.528 2.092 7.938 5.135 11.688 8.375l2.087 1.75c.656.565 1.311 1.13 1.987 1.71l1.811 1.55c1.631 1.846 2.03 3.21 2.427 5.615l-5 4-1.313-1.146a7255 7255 0 0 0-5.937-5.167l-2.066-1.802-2.012-1.748-1.84-1.603c-1.894-1.586-3.843-3.07-5.832-4.534a56.5 56.5 0 0 1 4-7"/><path fill="#EFEFEF" d="M327 397c12-.65 23.767 1.375 34 8l1 2c-4.522.035-9.04-.007-13.562-.062l-3.87.033c-10.637-.194-10.637-.194-14.97-4.405C327 399.476 327 399.476 327 397"/><path fill="#5C5959" d="m371 339 2 1a678 678 0 0 1-6.59 35.483q-.818 3.855-1.625 7.712l-1.043 4.93-.486 2.316c-1.14 5.328-1.14 5.328-2.256 7.559-4.079-.658-7.836-1.914-11.719-3.281-5.537-1.745-10.71-1.876-16.469-1.844l-2.557.006c-5.81.04-11.49.363-17.255 1.119 4.156-4.156 10.86-4.257 16.495-4.329.744.006 1.488.01 2.255.017l2.374.01c9.236.171 17.554 2.33 25.876 6.302l.314-2.474c1.28-9.542 3.133-18.875 5.186-28.276q.698-3.228 1.393-6.455l.892-4.13A775 775 0 0 0 371 339"/><path fill="#EBF6F0" d="M295.168 222.266c4.235 1.098 8.476 1.46 12.832 1.734-3.187 3.396-5.441 3.846-10.078 4.125-3.726.101-6.582-.02-10.192-1.137-4.196-1.111-7.745-1.147-12.043-.988a105 105 0 0 1-7.687 0l-2-2c11.03-3.767 17.93-5.066 29.168-1.734"/><path fill="#ECECEC" d="m403 415 4 4a640 640 0 0 1-3.875 3.5l-2.18 1.969C399 426 399 426 397 426l4 4 4-2 1 3c-2.187 2.563-2.187 2.563-5 5-3.26.08-4.624-.729-7.25-2.625-2.325-3.155-2.68-5.484-2.75-9.375 1.586-2.705 2.998-3 6-3.937 3.29-1.166 4.24-2.128 6-5.063"/><path fill="#432A29" d="M221 337v3l-2 2c.1 2.304.1 2.304.7 4.918.2.99.402 1.98.61 3.001 1.08 4.822 2.266 9.61 3.502 14.394 2.1 8.274 4.143 16.557 6.063 24.875l.652 2.768.59 2.587.52 2.25c.4 2.436.424 4.743.363 7.207l6-1c-4.75 4-4.75 4-7 4q-1.817-7.41-3.625-14.82l-1.228-5.014c-2.57-10.484-5.034-20.983-7.341-31.528-.439-1.98-.889-3.958-1.397-5.92-.718-3.014-.684-5.643-.409-8.718 2-2.437 2-2.437 4-4"/><path fill="#DFF2E8" d="M348 227c2.226.225 4.456.408 6.688.563l3.574.253L361 228v2c-4.206 2.03-7.626 2.234-12.27 2.195l-2.063-.008c-2.16-.011-4.32-.036-6.48-.062q-2.204-.016-4.412-.027-5.387-.035-10.775-.098c1.732-3.464 5.562-3.95 9.066-5.176 4.91-1.38 9.04-1.456 13.934.176"/><path fill="#E6F4ED" d="M374 250c1.892.222 3.789.406 5.688.563l3.011.253L385 251c-3.754 3.924-3.754 3.924-7.187 4.133-9.293-.026-18.541-.556-27.813-1.133 5.988-5.988 16.283-6.572 24-4"/><path fill="#E8F5EE" d="M332.59 238.266c3.136.955 6.156 1.38 9.41 1.734-2.554 2.554-4.272 2.966-7.848 3.133l-3.214-.008-3.223.008C325 243 325 243 323 242c-2.713-.232-5.408-.42-8.125-.562l-2.285-.131A1637 1637 0 0 0 307 241c1.313-2.626 2.324-2.695 5.063-3.625 7.604-2.35 13.136-1.531 20.527.89"/><path fill="#EFF8F3" d="M255 223c-2 3-2 3-3.772 3.668-2.633.392-5.208.55-7.869.648l-3.242.127-3.367.12-3.414.13q-4.168.159-8.336.307c8.182-8.398 18.894-6.813 30-5"/><path fill="#C1D9CC" d="M386 263c-3 3-6.467 2.427-10.5 2.563-5.415-.028-5.415-.028-10.5 1.437-3.732.281-7.464.447-11.203.621-3.571.356-6.46 1.1-9.797 2.379v-3c5.685-2.353 10.764-3.618 16.875-4.187l2.388-.242c7.686-.737 15.126-1.173 22.737.429"/><path fill="#EAF6F0" d="M274 237c1.992.376 3.992.72 6 1-4.871 3.248-10.276 2.328-16 2.313l-3.64.048-3.485.002-3.195.01c-2.992-.416-3.874-1.017-5.68-3.373 18.408-3.488 18.408-3.488 26 0"/><path fill="#E2F3EA" d="M311 245c2.992.436 5.988.74 9 1-1 2-1 2-2.742 2.617-2.5.424-4.849.516-7.383.508l-2.633.008C305 249 305 249 303 248c-2.713-.232-5.408-.42-8.125-.562l-2.285-.131A1637 1637 0 0 0 287 247c7.866-5.244 15.335-4.54 24-2"/><path fill="#E3E2E2" d="M369.438 278.688C373 279 373 279 375 280.188c1 1.812 1 1.812.875 4.375C375 287 375 287 372 289c-2.867.358-4.372.411-6.812-1.187-1.59-2.427-1.553-3.967-1.188-6.813 2-2 2-2 5.438-2.312"/><path fill="#EEF7F3" d="M307 197c1.992.376 3.992.72 6 1-3.202 3.202-6.906 2.295-11.271 2.322l-3.666-.01-3.655.05-3.498.001-3.214.01c-3.003-.415-3.886-1.008-5.696-3.373 17.64-3.293 17.64-3.293 25 0"/><path fill="#D8E3DD" d="M402 301c9.5 14.25 8.424 32.78 7 49h-1l-.078-3.96c-.325-11.38-1.584-21.926-4.394-32.952a431 431 0 0 1-1.72-7.041l-.54-2.27L401 302z"/><path fill="#D8EFE3" d="M331 213c1.537.225 3.08.408 4.625.563l2.477.253L340 214v2c-3.304 1.101-5.514 1.031-8.98.879l-3.526-.147-3.682-.17-3.716-.158q-4.548-.195-9.096-.404v-2c6.043-1.79 14.055-3.972 20-1"/><path fill="#BDBCBC" d="M386.5 278.75c3.5.25 3.5.25 5.5 2.25.359 2.798.338 4.403-1.062 6.875-3.054 1.773-5.602.817-8.938.125-.625-3.375-.625-3.375-1-7 2-2 2-2 5.5-2.25"/><path fill="#EFF8F4" d="M245 246c2.326.381 4.66.725 7 1-3.54 2.36-5.011 2.235-9.2 2.195l-3.661-.02-3.827-.05-3.86-.027q-4.727-.036-9.452-.098l-1-2c8.516-2.63 15.515-4.699 24-1"/><path fill="#E2F3EA" d="M271 211c2.663.47 5.306.73 8 1-1.749 2.193-2.58 2.943-5.41 3.328l-2.652-.078c-.878-.015-1.756-.03-2.66-.047C266 215 266 215 264 214c-2.371-.23-4.747-.411-7.125-.562l-3.883-.254L250 213c6.59-4.393 13.842-5.803 21-2"/><path fill="#D8EFE3" d="M280 252c-2 2-2 2-4.338 2.135l-2.889-.158-3.125-.157-3.273-.195-3.297-.172q-4.04-.213-8.078-.453v-2c8.637-3.124 16.29-1.12 25 1"/><path fill="#D21F26" d="M270 319c2.375 0 2.375 0 5 1 4 4.973 4 4.973 4 9l-11-3c0-5 0-5 2-7"/><path fill="#514D4E" d="M344.875 396.5c6.396 1.586 12.237 4.606 18.125 7.5l1-3c2.248 2.052 3.002 3.007 4 6-5.341.685-8.213-1.065-12.633-3.691-5.398-2.985-11.27-4.527-17.367-5.309 3-2 3-2 6.875-1.5"/><path fill="#422526" d="M226 381c2.807 2.807 3.224 6.065 4.125 9.813.182.712.364 1.424.55 2.158.922 3.742 1.552 7.171 1.325 11.029l6-1c-4.75 4-4.75 4-7 4-.843-3.394-1.672-6.79-2.5-10.187l-.723-2.909-.683-2.822-.635-2.587c-.47-2.554-.54-4.903-.459-7.495"/><path fill="#E7E6E6" d="M325 317h3c3 5.75 3 5.75 3 8l-9 2c.507-3.719 1.116-6.735 3-10"/><path fill="#D4EDE0" d="m338 257-1 2c-5.537.426-9.897-1.095-15-3 3.086-6.172 11.49-1.034 16 1"/><path fill="#F4F4F4" d="M462.063 315.938 465 316c.625 2.375.625 2.375 1 5l-2 2c-2.625-.375-2.625-.375-5-1a88 88 0 0 1-1-5c1-1 1-1 4.063-1.062"/><path fill="#E7E7E7" d="M403 187c2.912 3.288 4.497 5.599 5 10-1.812.688-1.812.688-4 1-1.812-1.062-1.812-1.062-3-3 .245-2.998.653-5.307 2-8"/><path fill="#DBE5E0" d="M359 298h1c-.646 4.873-1.51 9.631-2.562 14.438l-.817 3.746L356 319l-2-1c1.579-16.579 1.579-16.579 5-20"/><path fill="#D41F27" d="m236 165 1 5c-2.812.688-2.812.688-6 1-1.875-1.312-1.875-1.312-3-3v-2c2.928-.976 4.956-1.082 8-1"/><path fill="#30AE6E" d="M410 334c2.643 2.296 3.625 4.228 4.625 7.563 1.004 3.291 1.004 3.291 2.375 6.437-2.375.125-2.375.125-5 0-2-2-2-2-2.195-4.82l.07-3.305.055-3.32z"/><path fill="#DDF1E7" d="M296.875 255.188A52 52 0 0 1 305 258l-1 3c-4.485-.656-8.67-1.7-13-3 1.905-2.646 2.538-3.03 5.875-2.812"/><path fill="#D61F27" d="M190 422c2.468 1.152 4.048 2.048 6 4-.375 2.125-.375 2.125-1 4-2.962-.613-4.38-1.254-7-3z"/><path fill="#F1F0F0" d="M336 315c1.938.625 1.938.625 4 2 .75 3.125.75 3.125 1 6h-6q-.062-3.5 0-7z"/><path fill="#001B0D" d="M313 255c1 3 1 3-.652 6.355a284 284 0 0 1-2.286 3.832l-1.17 1.983A613 613 0 0 1 306 272h-3c1.304-3.548 2.86-6.513 5-9.625l1.563-2.29L311 258z"/><path fill="#CD1F26" d="m149 236 5 1c-.875 4.75-.875 4.75-2 7l-5-2z"/><path fill="#E1E0E0" d="M450 308h2l.402 2.555.536 3.32.527 3.305c.39 2.758.39 2.758 1.535 4.82l-6-1-1-4 3-1z"/><path fill="#E6F5ED" d="M367.375 237.125c3.048 1.016 5.795 2.361 8.625 3.875l-2 2c-2.125-.25-2.125-.25-5-1q-2.156-.532-4.312-1.062L361 240c2.217-2.053 3.29-3.037 6.375-2.875"/><path fill="#E3EEE8" d="m356.25 264.875 2.258.027c1.83.024 3.661.06 5.492.098v1l-2.09.113c-6.396.448-11.94 1.543-17.91 3.887v-3c3.842-2.568 7.814-2.227 12.25-2.125"/><path fill="#B2B0B0" d="M367 281h5l1 5-5 1c-1.062-1.875-1.062-1.875-2-4z"/><path fill="#D41F27" d="M197 415c1.938.75 1.938.75 4 2 .75 2.125.75 2.125 1 4-1.812.688-1.812.688-4 1-1.75-1.437-1.75-1.437-3-3z"/><path fill="#D21F27" d="M257 317c1.875.313 1.875.313 4 1 2 3 2 3 2 6l-6-1z"/><path fill="#C5C4C4" d="m454 251 4 1-1 7h-1l-1 5h-1z"/><path fill="#D0CFCF" d="M336 145h1v10l-5-1c1.059-3.403 2.009-6.014 4-9"/><path fill="#C31E25" d="m234 156-1 3-8 1v-4c3.069-1.534 5.7-.55 9 0"/><path fill="#CE2D23" d="M234 313c2.876 4.314 4 7.807 4 13h-3c-.872-2.995-1.108-5.636-1.062-8.75l.027-2.422z"/><path fill="#E42028" d="M247 318h6v5h-6z"/><path fill="#D9D9D9" d="M351 448c2.5 2.313 2.5 2.313 5 5v3l-5 1z"/><path fill="#E2E1E1" d="M452 337c3.412 1.137 4.119 2.043 6 5v2l-7-1z"/><path fill="#ECECEC" d="M384 282c4.75.875 4.75.875 7 2l-1 4h-5z"/><path fill="#E4E9E6" d="M356 281h1l.875 3.688c.803 3.23 1.788 6.255 3.125 9.312-1.875-.187-1.875-.187-4-1-2.536-4.106-1.901-7.403-1-12"/><path fill="#CB1F26" d="M205 172a56.5 56.5 0 0 1 7 4l-2 4-3-1c-1.187-3.562-1.187-3.562-2-7"/><path fill="#230506" d="m251 409-1 2q-2.374.079-4.75.125l-2.672.07c-2.692-.204-4.277-.83-6.578-2.195q2.905-.29 5.813-.562l3.269-.317C248 408 248 408 251 409"/><path fill="#CD1F26" d="m165 212 1 3-5 4-2-1c.75-2.437.75-2.437 2-5 2.125-.812 2.125-.812 4-1"/><path fill="#E1E1E1" d="m410 182 4 1c.625 2.375.625 2.375 1 5l-2 2c-2.624-3.061-3-3.732-3-8"/><path fill="#858283" d="m363 401 3 1c1.188 2.563 1.188 2.563 2 5-2.875.188-2.875.188-6 0l-2-3h3z"/><path fill="#D51F27" d="M217 434c.93 2.606 1.15 3.642.063 6.25L216 442l-4-2v-2a105 105 0 0 1 5-4"/><path fill="#565253" d="M373 359h1v14c-3-4-3-4-3.11-6.07.999-5.708.999-5.708 2.11-7.93"/><path fill="#CAE8D9" d="M399 276c2.136 3.204 2.231 4.02 2.125 7.688l-.055 2.449L401 288l-3-2c-.328-2.129-.328-2.129-.25-4.562.015-.806.03-1.612.047-2.442C398 277 398 277 399 276"/><path fill="#00190C" d="m350 284-11 6 1-4c6.128-3.29 6.128-3.29 10-2"/><path fill="#B3B1B1" d="m383 282 2 3 3 2 1 2-7-1-1-3h2z"/><path fill="#B61E24" d="M175 233c-1 1.563-1 1.563-3 3-2.766-.033-5.26-.506-8-1 2.916-2.916 7.208-3.896 11-2"/><path fill="#D7EFE3" d="m259 211 3 2h-12c5-3.333 5-3.333 9-2"/><path fill="#4C393B" d="m224 372 2 1c.594 2.649.742 5.292 1 8h-2z"/><path fill="#309540" d="m229 294 1 2-8 1v-3c3.01-.934 3.867-1.044 7 0"/><path fill="#F3F3F3" d="M385.563 278.938 388 279l-1.937 1.313c-2.33 1.6-2.33 1.6-3.063 4.687h-2c1.073-5.977 1.073-5.977 4.563-6.062"/></svg>